<?xml version="1.0" encoding="UTF-8" standalone="no"?>
<!DOCTYPE svg PUBLIC "-//W3C//DTD SVG 1.1//EN" "http://www.w3.org/Graphics/SVG/1.1/DTD/svg11.dtd">
<svg version="1.1" xmlns="http://www.w3.org/2000/svg" xmlns:xlink="http://www.w3.org/1999/xlink" preserveAspectRatio="xMidYMid meet" viewBox="0 0 640 640" width="640" height="640"><defs><path d="M503.42 573.18C503.42 581.96 420.58 589.07 318.38 589.07C216.18 589.07 133.33 581.96 133.33 573.18C133.33 564.4 216.18 557.29 318.38 557.29C420.58 557.29 503.42 564.4 503.42 573.18Z" id="h1sfTaSSgO"></path><path d="M224.26 224.06L216.91 254.01L209.61 283.75L202.31 313.48L199.61 324.56L190.2 322.45L192.42 313.48L200.53 280.39L206.91 254.28L214.85 221.96L224.26 224.06" id="lCA7SH0sZ"></path><path d="M234.86 176.11L234.8 176.38L234.8 176.38L223.94 220.66L216.8 218.93L227.67 174.55L227.72 174.33L234.86 176.11" id="b80L34alAq"></path><path d="M238.96 176.55C239.01 176.9 238.75 177.22 238.4 177.27C238.31 177.28 238.23 177.27 238.15 177.25C237.93 177.19 236.81 176.9 234.8 176.38L234.8 176.38L227.72 174.55C225.48 173.96 224.24 173.64 223.99 173.57C223.64 173.48 223.44 173.12 223.53 172.78C223.55 172.71 223.58 172.65 223.61 172.6C224.25 171.56 227.46 166.37 233.23 157.03C235.12 153.92 236.16 152.19 236.37 151.84C236.57 151.54 236.97 151.46 237.27 151.66C237.44 151.77 237.55 151.96 237.56 152.16C237.58 152.49 237.67 154.13 237.83 157.08C238.43 167.46 238.81 173.95 238.96 176.55Z" id="j9OruEhyD"></path><path d="M198.1 264.82L197.12 264.82C194.62 265.02 193.24 265.13 192.96 265.15C187.39 265.53 181.12 265.91 175.12 268.12C168.2 270.66 162.69 275.2 158.31 282.02C147.17 299.26 142.79 331.59 145.01 380.89C145.02 381.07 145.05 381.97 145.12 383.59L145.12 384.19L150.85 384.19C150.85 383.8 150.85 383.58 150.85 383.54C150.79 381.97 150.74 380.46 150.63 379C150.63 378.67 150.63 378.3 150.58 377.97C148.96 332.24 153.06 302.29 163.01 286.45C171.93 272.34 184.36 271.58 195.28 270.88C195.4 270.87 196 270.84 197.07 270.77L198.42 270.77L198.1 264.82Z" id="b3PzJgGT4n"></path><path d="M466.61 268.23C460.61 266.01 454.34 265.58 448.77 265.26C448.49 265.24 447.11 265.13 444.61 264.93L443.63 264.93L443.26 270.88L444.61 270.88C445.68 270.94 446.27 270.98 446.39 270.99C457.37 271.69 469.75 272.45 478.67 286.56C488.77 302.5 492.83 332.89 491.04 379.38C491.03 379.66 490.98 381.09 490.88 383.65L490.88 384.3L496.56 384.3L496.56 382.62C496.56 382.62 496.56 382.62 496.56 382.62C499.05 332.4 494.72 299.53 483.42 282.12C479.04 275.31 473.53 270.77 466.61 268.23Z" id="asCKqQ8dc"></path><path d="M444.61 273.1C444.61 278.99 438.93 283.8 431.96 283.8C409.72 283.8 231.84 283.8 209.61 283.8C206.27 283.81 203.04 282.6 200.53 280.39C198.39 278.57 197.15 275.91 197.12 273.1C197.12 272.26 197.12 265.55 197.12 264.72C197.12 259.69 201.34 255.42 206.91 254.34C207.83 254.16 208.77 254.07 209.72 254.07C231.95 254.07 409.78 254.07 432.01 254.07C438.99 254.01 444.61 258.82 444.61 264.72C444.61 266.39 444.61 272.26 444.61 273.1Z" id="bgpD3bp2I"></path><path d="M499.91 390.62C499.91 397.04 494.73 402.24 488.34 402.24C481.95 402.24 476.77 397.04 476.77 390.62C476.77 384.2 481.95 379 488.34 379C494.73 379 499.91 384.2 499.91 390.62Z" id="b2tCklOg7e"></path><path d="M506.67 425.54C506.67 433.04 500.62 439.11 493.15 439.11C485.69 439.11 479.64 433.04 479.64 425.54C479.64 418.05 485.69 411.98 493.15 411.98C500.62 411.98 506.67 418.05 506.67 425.54Z" id="aSbiSaq78"></path><path d="M151.57 402.27C150.28 402.28 148.99 402.07 147.77 401.65C141.68 399.52 138.47 392.86 140.59 386.78C141.41 384.43 142.96 382.41 145.01 381C146.63 379.88 148.51 379.21 150.47 379.05C150.57 379.05 151.39 379.05 151.5 379.05C156.31 379.06 160.62 382.06 162.31 386.57C162.8 387.86 163.06 389.24 163.06 390.62C163.11 397.01 157.96 402.22 151.57 402.27Z" id="d59MipTK68"></path><path d="M146.63 439.17C145.5 439.17 144.37 439.03 143.28 438.73C136.02 436.86 131.66 429.46 133.53 422.2C135.06 416.29 140.36 412.12 146.47 412.03C146.48 412.03 146.61 412.03 146.63 412.03C154.1 412.06 160.15 418.13 160.15 425.6C160.15 433.07 154.1 439.14 146.63 439.17Z" id="dLDB9qN6S"></path><path d="M153.5 557.61C139.98 557.61 130.41 546.31 132.09 532.58C132.84 526.32 136.59 495.02 143.33 438.68L146.52 411.98L147.77 401.65L149.87 384.24L150.47 379.05L150.58 378.03C153.89 350.42 155.72 335.09 156.09 332.02C157.33 321.75 167.55 313.53 179.01 313.53C207.21 313.53 432.79 313.53 460.99 313.53C472.45 313.53 482.67 321.75 483.91 332.02C484.28 335.16 486.16 350.83 489.53 379.05L492.23 401.6L493.48 412.03L496.67 438.68C503.41 495.05 507.16 526.37 507.91 532.64C509.59 546.31 500.02 557.61 486.5 557.61C419.9 557.61 186.8 557.61 153.5 557.61Z" id="cP4Hiamwk"></path><path d="M493.26 527.61C494.77 540.31 485.91 550.8 473.42 550.8C442.6 550.8 196.05 550.8 165.23 550.8C152.74 550.8 143.87 540.31 145.39 527.61C147.61 509.04 165.43 360.48 167.66 341.91C168.8 332.4 178.31 324.78 188.85 324.78C214.95 324.78 423.7 324.78 449.8 324.78C460.39 324.78 469.85 332.4 470.99 341.91C475.44 379.05 488.81 490.47 493.26 527.61Z" id="coYCH3P5v"></path><path d="M488.88 522.74C490.34 535.07 481.75 545.23 469.64 545.23C439.71 545.23 200.29 545.23 170.36 545.23C158.25 545.23 149.6 535.07 151.12 522.74C153.28 504.72 170.58 360.53 172.74 342.51C173.82 333.26 183.07 325.91 193.34 325.91C218.68 325.91 421.38 325.91 446.72 325.91C456.99 325.91 466.18 333.32 467.31 342.51C471.63 378.56 484.57 486.7 488.88 522.74Z" id="d4x3yAimQZ"></path><path d="M191.18 373.48L243.29 373.48L243.29 392.08L191.18 392.08L191.18 373.48Z" id="c1BNCoQDKY"></path><path d="M196.1 379.76L238.32 379.76L238.32 385.79L196.1 385.79L196.1 379.76Z" id="b1Fg3G7Ucn"></path><path d="M196.1 379.76L197.77 379.76L197.77 385.79L196.1 385.79L196.1 379.76Z" id="c3KdIKg3ju"></path><path d="M198.31 379.76L199.77 379.76L199.77 385.79L198.31 385.79L198.31 379.76Z" id="blfQb6TCo"></path><path d="M200.58 379.76L201.83 379.76L201.83 385.79L200.58 385.79L200.58 379.76Z" id="c25JA7eNhI"></path><path d="M202.8 379.76L203.83 379.76L203.83 385.79L202.8 385.79L202.8 379.76Z" id="b5Bpiu62W3"></path><path d="M205.07 379.76L205.93 379.76L205.93 385.79L205.07 385.79L205.07 379.76Z" id="a4GqcB1Dr2"></path><path d="M228.59 379.76L229.45 379.76L229.45 385.79L228.59 385.79L228.59 379.76Z" id="haNVQ13wr"></path><path d="M230.59 379.76L231.61 379.76L231.61 385.79L230.59 385.79L230.59 379.76Z" id="ig9YGIOOZ"></path><path d="M232.64 379.76L233.88 379.76L233.88 385.79L232.64 385.79L232.64 379.76Z" id="aHxX55Yn0"></path><path d="M234.64 379.76L236.1 379.76L236.1 385.79L234.64 385.79L234.64 379.76Z" id="a8xXOyVQU"></path><path d="M236.69 379.76L238.37 379.76L238.37 385.79L236.69 385.79L236.69 379.76Z" id="ge6EyGGEA"></path><path d="M396.55 373.48L448.66 373.48L448.66 392.08L396.55 392.08L396.55 373.48Z" id="a4uQxQicGF"></path><path d="M401.52 379.76L443.74 379.76L443.74 385.79L401.52 385.79L401.52 379.76Z" id="b1lNaqQbEG"></path><path d="M442.07 379.76L443.74 379.76L443.74 385.79L442.07 385.79L442.07 379.76Z" id="aldRx05kS"></path><path d="M440.01 379.76L441.47 379.76L441.47 385.79L440.01 385.79L440.01 379.76Z" id="e2ZZfvD19t"></path><path d="M438.01 379.76L439.26 379.76L439.26 385.79L438.01 385.79L438.01 379.76Z" id="a2J2M2R71Q"></path><path d="M435.96 379.76L436.99 379.76L436.99 385.79L435.96 385.79L435.96 379.76Z" id="e1k9iWDF1L"></path><path d="M408.17 379.76L409.2 379.76L409.2 385.79L408.17 385.79L408.17 379.76Z" id="anluHhMf3"></path><path d="M405.95 379.76L407.2 379.76L407.2 385.79L405.95 385.79L405.95 379.76Z" id="al8nTcxFr"></path><path d="M403.68 379.76L405.14 379.76L405.14 385.79L403.68 385.79L403.68 379.76Z" id="cb01SdX06"></path><path d="M401.47 379.76L403.14 379.76L403.14 385.79L401.47 385.79L401.47 379.76Z" id="a1OXK94aen"></path><path d="M431.15 379.7L433.09 379.7L433.09 385.77L431.15 385.77L431.15 379.7Z" id="asJDJrzJ"></path><path d="M432.71 447.6C432.55 446.13 431.33 445 429.85 444.95C407.88 444.95 232.17 444.95 210.2 444.95C208.72 445 207.5 446.13 207.34 447.6C206.57 456.21 200.43 525.11 199.66 533.72C199.6 533.95 199.74 534.18 199.97 534.24C200.01 534.25 200.05 534.26 200.1 534.26C224.08 534.26 415.92 534.26 439.9 534.26C440.14 534.27 440.34 534.08 440.35 533.84C440.35 533.8 440.35 533.76 440.34 533.72C438.81 516.49 434.24 464.82 432.71 447.6Z" id="a15h71V3Zn"></path><path d="M346.11 503.66L383.84 503.66L384.28 509.99L346.38 509.99L346.11 503.66ZM212.04 454.2L211.34 460.47L251.99 460.47L252.43 454.14L212.04 454.2ZM344.43 460.52L344.16 454.2L380.28 454.2L380.71 460.52L344.43 460.52ZM259.07 460.52L259.51 454.2L295.67 454.2L295.4 460.52L259.07 460.52ZM387.84 460.52L387.41 454.2L428.07 454.2L428.77 460.52L387.84 460.52ZM302.48 460.52L302.75 454.2L337.19 454.2L337.46 460.52L302.48 460.52ZM302.27 466.58L337.68 466.58L337.95 472.9L301.94 472.9L302.27 466.58ZM388.76 472.9L388.33 466.58L429.2 466.58L429.9 472.9L388.76 472.9ZM258.64 466.58L295.19 466.58L294.92 472.9L258.21 472.9L258.64 466.58ZM251.61 466.58L251.18 472.9L210.1 472.9L210.8 466.58L251.61 466.58ZM344.71 466.58L381.25 466.58L381.68 472.9L344.92 472.9L344.71 466.58ZM301.73 478.96L338.11 478.96L338.38 485.28L301.46 485.28L301.73 478.96ZM257.78 478.96L294.7 478.96L294.43 485.28L257.29 485.28L257.78 478.96ZM345.19 478.96L382.11 478.96L382.55 485.28L345.41 485.28L345.19 478.96ZM389.63 485.28L389.2 478.96L430.01 478.96L430.71 485.28L389.63 485.28ZM250.7 478.9L250.26 485.23L209.18 485.23L209.88 478.9L250.7 478.9ZM249.83 491.28L249.4 497.61L207.61 497.61L208.31 491.28L249.83 491.28ZM390.49 497.61L390.06 491.28L431.53 491.28L432.23 497.61L390.49 497.61ZM301.24 491.28L338.6 491.28L338.87 497.61L301.03 497.61L301.24 491.28ZM345.68 491.28L382.98 491.28L383.41 497.61L345.89 497.61L345.68 491.28ZM256.91 491.28L294.21 491.28L293.94 497.61L256.43 497.61L256.91 491.28ZM391.36 509.99L390.93 503.66L432.61 503.66L433.31 509.99L391.36 509.99ZM248.91 503.66L248.48 509.99L206.53 509.99L207.23 503.66L248.91 503.66ZM255.94 503.66L293.67 503.66L293.4 509.99L255.51 509.99L255.94 503.66ZM300.7 503.66L339.03 503.66L339.3 509.99L300.48 509.99L300.7 503.66ZM392.28 522.36L391.85 516.04L433.58 516.04L434.28 522.36L392.28 522.36ZM339.62 516.04L339.89 522.36L300 522.36L300.27 516.04L339.62 516.04ZM293.24 516.04L292.97 522.36L254.64 522.36L255.07 516.04L293.24 516.04ZM384.76 516.04L385.2 522.36L346.87 522.36L346.6 516.04L384.76 516.04ZM248.05 516.04L247.56 522.36L205.56 522.36L206.26 516.04L248.05 516.04Z" id="d2Y7GaG038"></path><path d="M354.27 384.84C354.27 403.86 338.93 419.27 320 419.27C301.07 419.27 285.73 403.86 285.73 384.84C285.73 365.82 301.07 350.4 320 350.4C338.93 350.4 354.27 365.82 354.27 384.84Z" id="e3rzwvul7j"></path><path d="M360.6 392.84L360.33 392.84L353.63 391.16L349.89 390.19L343.46 388.57C342.62 388.37 342.15 388.26 342.06 388.24C342.23 387.13 342.32 386.01 342.33 384.89C342.34 378.51 339.65 372.42 334.92 368.13C334.89 368.11 334.68 367.89 334.65 367.86C330.58 364.3 325.35 362.35 319.95 362.35C319.9 362.35 319.51 362.35 319.46 362.35C307.21 362.61 297.42 372.64 297.46 384.89C297.46 386.01 297.55 387.13 297.73 388.24C297.65 388.26 297.25 388.35 296.54 388.51L290.05 390.08L286.27 391L279.62 392.62L279.4 392.62C278.04 392.95 277.28 393.13 277.13 393.16C277.24 394.03 277.4 394.89 277.56 395.76C279.29 404.03 283.38 411.62 289.35 417.6C297.3 425.68 308.12 430.29 319.46 430.41C319.51 430.41 319.95 430.41 320 430.41C331.51 430.44 342.56 425.84 350.65 417.65C356.64 411.64 360.74 404.01 362.44 395.7C362.58 394.95 362.71 394.17 362.82 393.38L360.6 392.84Z" id="bJH6YKxh2"></path><path d="M319.46 328.67C288.92 328.94 264.16 354.02 264.16 384.78C264.16 415.54 288.92 440.68 319.46 440.95C319.51 440.95 319.95 440.95 320 440.95C350.81 440.95 375.84 415.76 375.84 384.78C375.84 353.81 350.81 328.67 320 328.67C319.89 328.67 319.51 328.67 319.46 328.67ZM320 343.48C329.35 343.48 338.41 346.69 345.68 352.56C345.7 352.58 345.81 352.67 346 352.83C346.07 352.9 346.1 352.93 346.11 352.94C357.81 362.61 363.28 377.89 360.38 392.78C356.71 411.81 340 426.19 320 426.19C319.95 426.19 319.51 426.19 319.46 426.19C299.89 425.89 283.24 411.86 279.62 392.62C279.11 390.08 278.86 387.49 278.86 384.89C278.86 362.19 297.02 343.75 319.46 343.48C319.57 343.48 319.95 343.48 320 343.48Z" id="bTohe7Xc"></path><path d="M334.49 384.84C334.49 392.87 328 399.38 320 399.38C312 399.38 305.51 392.87 305.51 384.84C305.51 376.81 312 370.3 320 370.3C328 370.3 334.49 376.81 334.49 384.84Z" id="a16WGpxpjl"></path><path d="M319.46 365.27C308.68 365.27 299.94 374.01 299.94 384.78C299.94 395.56 308.68 404.3 319.46 404.3C319.51 404.3 319.95 404.3 320 404.3C330.79 403.73 339.08 394.52 338.51 383.73C337.99 373.73 330 365.74 320 365.21C320 365.22 319.51 365.27 319.46 365.27ZM320 394.35C319.68 394.35 319.5 394.35 319.46 394.35C314.2 394.35 309.94 390.09 309.94 384.84C309.94 379.58 314.2 375.32 319.46 375.32C319.51 375.32 319.95 375.32 320 375.32C325.28 375.32 329.57 379.61 329.57 384.89C329.57 390.18 325.28 394.46 320 394.46C320 394.45 320 394.41 320 394.35Z" id="d3AbrhIuFn"></path><path d="M334.92 368.02L333.03 366.29L345.68 352.51L347.57 354.24L334.92 368.02" id="fwLqrhUbx"></path><path d="M473.25 125.66L442.01 128.54L411.56 131.35C408.2 152.84 406.34 164.78 405.97 167.17C404.2 166.21 402.28 165.48 400.19 165.15C390.36 163.64 380.96 170.35 379.45 180.17C378.11 188.9 383.46 197.21 391.52 200.01C402.18 203.71 413.56 196.8 415.27 185.72C415.72 182.84 417.96 168.42 422.01 142.46L437.68 141.02L459.02 139.05C456.8 153.18 455.57 161.03 455.32 162.6C453.54 161.64 451.61 160.93 449.55 160.61C439.71 159.09 430.5 165.81 428.98 175.68C427.6 184.58 432.96 192.7 440.85 195.44C451.53 199.15 462.9 192.3 464.62 181.17C465.77 173.77 468.65 155.26 473.25 125.66Z" id="f1I98tMouY"></path><path d="M455.32 162.6C453.54 161.64 451.61 160.93 449.55 160.61C439.71 159.09 430.5 165.81 428.98 175.68C427.6 184.58 432.96 192.7 440.85 195.44C451.53 199.15 462.9 192.3 464.62 181.17C465.19 177.47 468.07 158.96 473.25 125.66L442.01 128.54L437.68 141.02L459.02 139.05C457.05 151.61 455.81 159.46 455.32 162.6Z" id="ago4Itz0H"></path><path d="M570.39 52.01L550.68 47.32C535.73 77.08 527.42 93.61 525.76 96.91C523.52 93.48 520.52 90.6 516.78 88.66C504.98 82.58 490.5 87.1 484.37 98.93C477.57 112.01 484.07 127.94 497.84 132.72C508.93 136.57 521.48 131.79 527.05 121.07C527.06 121.05 557.14 61.21 557.14 61.21C557.76 61.36 560.86 62.09 566.43 63.42L617.84 75.71C606.21 98.85 599.75 111.7 598.46 114.27C596.27 110.9 593.3 107.98 589.48 106C577.77 99.93 563.23 104.4 557.08 116.27C550.28 129.35 556.78 145.28 570.54 150.06C581.63 153.91 594.19 149.13 599.76 138.41C599.77 138.38 635.42 67.53 635.42 67.53C626.75 65.46 605.07 60.29 570.39 52.01Z" id="b4x96fslev"></path><path d="M598.46 114.27C596.27 110.9 593.3 107.98 589.48 106C577.77 99.93 563.23 104.4 557.08 116.27C550.28 129.35 556.78 145.28 570.54 150.06C581.63 153.91 594.19 149.13 599.76 138.41C599.77 138.38 635.42 67.53 635.42 67.53C631.08 66.5 609.41 61.32 570.39 52.01L566.43 63.42L617.84 75.71C607.5 96.28 601.04 109.13 598.46 114.27Z" id="dfuMoo2Gb"></path><path d="M560.65 157.97C541.38 177.46 530.68 188.28 528.54 190.45C527.67 188.64 526.55 186.93 525.04 185.44C523.27 183.68 521.23 182.37 519.06 181.51C512.51 178.89 504.77 180.29 499.54 185.57C490.23 194.99 493.92 210.93 506.42 215.27C506.69 215.37 506.99 215.36 507.27 215.44C513.43 217.25 520.36 215.81 525.18 210.94C525.18 210.94 525.18 210.94 525.18 210.94L548.79 187.06L548.9 206.55L560.92 206.49L560.65 157.97Z" id="b4gFnzgLXl"></path><path d="M525.18 210.94L548.79 187.06L548.9 206.55L560.92 206.49L560.65 157.97C541.38 177.46 530.68 188.28 528.54 190.45C527.67 188.64 526.55 186.93 525.04 185.44C523.27 183.68 521.23 182.37 519.06 181.51C517.88 184.9 508.45 212.05 507.27 215.44C513.43 217.25 520.36 215.81 525.18 210.94C525.18 210.94 525.18 210.94 525.18 210.94Z" id="b1roShdpUq"></path><path d="M486.01 61.2L463.11 31.16L456.6 22.62L450.58 67.23C450.52 67.63 450.49 67.85 450.49 67.89C450.45 67.87 450.4 67.87 450.36 67.85C448.61 66.96 446.74 66.27 444.68 65.98C434.76 64.65 425.73 71.6 424.4 81.44C423.22 90.28 428.59 98.19 436.32 100.88C437.11 101.15 437.91 101.25 438.71 101.41C448.81 103.47 458.74 96.68 460.15 86.26C460.45 84.04 461.94 72.95 464.63 52.98L476.44 68.49L486.01 61.2Z" id="bj2UuEQUL"></path><path d="M464.63 52.98L476.44 68.49L486.01 61.2L463.11 31.16L450.58 67.22C450.52 67.63 450.49 67.85 450.49 67.89C450.45 67.87 450.4 67.87 450.36 67.85C449.2 71.21 439.87 98.06 438.71 101.41C448.81 103.47 458.74 96.67 460.15 86.26C460.75 81.82 462.24 70.73 464.63 52.98Z" id="a1x6SXjlZu"></path><path d="M93.61 187.93L75.82 206.95L58.49 225.48C68.25 240.66 73.67 249.09 74.76 250.78C73.13 251.16 71.54 251.76 70.06 252.71C63.13 257.19 61 266.53 65.48 273.46C69.46 279.61 77.36 281.82 83.9 279.11C92.56 275.53 95.81 264.97 90.75 257.16C89.44 255.12 82.89 244.94 71.09 226.61L80.01 217.07L92.17 204.08C98.58 214.07 102.14 219.63 102.85 220.74C101.22 221.12 99.63 221.74 98.17 222.68C91.24 227.16 89.22 236.41 93.72 243.37C97.78 249.65 105.58 251.73 111.98 249.09C120.65 245.5 123.93 234.97 118.86 227.13C115.49 221.9 107.08 208.84 93.61 187.93Z" id="d7xm3h8yL"></path><path d="M102.85 220.74C101.22 221.12 99.63 221.74 98.17 222.68C91.24 227.16 89.22 236.41 93.72 243.37C97.78 249.65 105.58 251.73 111.98 249.09C120.65 245.5 123.93 234.98 118.86 227.13C117.17 224.51 108.76 211.45 93.61 187.93L75.82 206.95L80.01 217.07L92.16 204.08C97.86 212.96 101.43 218.52 102.85 220.74Z" id="a25OQFTjCv"></path><path d="M113.27 88.7L98.46 96.66C105.58 123.36 109.54 138.19 110.34 141.16C107.06 140.26 103.6 140.13 100.22 140.99C89.54 143.72 83.06 154.51 85.77 165.23C88.77 177.08 101.58 183.38 112.75 178.76C121.75 175.04 126.91 165.15 124.45 155.43C124.45 155.41 110.12 101.71 110.12 101.71C110.59 101.46 112.91 100.21 117.1 97.96L155.76 77.25C161.3 98.01 164.38 109.54 165 111.85C161.78 110.97 158.33 110.79 154.87 111.67C144.26 114.36 137.7 125.15 140.43 135.9C143.42 147.76 156.24 154.06 167.41 149.44C176.41 145.71 181.57 135.83 179.11 126.11C179.1 126.09 162.16 62.49 162.16 62.49C155.64 65.98 139.34 74.72 113.27 88.7Z" id="a4zx9arl3V"></path><path d="M165 111.85C161.78 110.97 158.33 110.79 154.87 111.67C144.26 114.36 137.7 125.15 140.43 135.9C143.42 147.76 156.24 154.06 167.41 149.44C176.41 145.71 181.57 135.83 179.11 126.11C179.1 126.09 162.16 62.49 162.16 62.49C158.9 64.23 142.6 72.97 113.27 88.7L117.1 97.96L155.76 77.25C160.69 95.7 163.77 107.24 165 111.85Z" id="g1Dy1r3mal"></path><path d="M165.64 159.8C164.43 182.51 163.76 195.12 163.62 197.65C162.09 197.01 160.44 196.56 158.69 196.47C156.62 196.35 154.63 196.67 152.81 197.33C147.3 199.31 143.28 204.45 142.95 210.61C142.36 221.58 153.44 229.44 163.58 225.24C163.81 225.15 163.99 224.98 164.21 224.87C169.03 222.6 172.53 217.89 172.84 212.21C172.84 212.21 172.84 212.21 172.83 212.2L174.32 184.38L185.13 196.41L192.55 189.75L165.64 159.8Z" id="a5spXCvLct"></path><path d="M172.83 212.2L174.32 184.38L185.13 196.41L192.55 189.75L165.64 159.8C164.43 182.51 163.76 195.12 163.62 197.65C162.09 197.01 160.44 196.56 158.69 196.47C156.62 196.35 154.63 196.67 152.81 197.33C153.95 200.08 163.07 222.12 164.21 224.87C169.03 222.6 172.53 217.89 172.84 212.21C172.84 212.21 172.84 212.21 172.83 212.2Z" id="anUdBQqn7"></path><path d="M65.99 140.92L35.22 134.91L26.48 133.2L47.34 164.19C47.52 164.47 47.63 164.62 47.65 164.65C47.61 164.66 47.58 164.69 47.55 164.7C45.97 165.11 44.42 165.71 42.99 166.66C36.11 171.31 34.34 180.6 38.94 187.43C43.08 193.57 50.76 195.52 57.04 192.92C57.69 192.66 58.23 192.28 58.82 191.94C66.21 187.64 68.63 177.96 63.77 170.72C62.73 169.18 57.54 161.48 48.2 147.61L64.08 150.71L65.99 140.92Z" id="cHmny2BIg"></path><path d="M48.2 147.61L64.08 150.71L65.99 140.92L35.22 134.91L47.34 164.19C47.52 164.47 47.63 164.62 47.65 164.65C47.61 164.66 47.58 164.69 47.55 164.7C48.67 167.42 57.69 189.21 58.82 191.94C66.21 187.64 68.63 177.96 63.77 170.72C61.69 167.64 56.5 159.94 48.2 147.61Z" id="bP6lLO1Ap"></path></defs><g><g><g><use xlink:href="#h1sfTaSSgO" opacity="1" fill="#62352b" fill-opacity="1"></use><g><use xlink:href="#h1sfTaSSgO" opacity="1" fill-opacity="0" stroke="#000000" stroke-width="1" stroke-opacity="0"></use></g></g><g><use xlink:href="#lCA7SH0sZ" opacity="1" fill="#466455" fill-opacity="1"></use><g><use xlink:href="#lCA7SH0sZ" opacity="1" fill-opacity="0" stroke="#000000" stroke-width="1" stroke-opacity="0"></use></g></g><g><use xlink:href="#b80L34alAq" opacity="1" fill="#466455" fill-opacity="1"></use><g><use xlink:href="#b80L34alAq" opacity="1" fill-opacity="0" stroke="#000000" stroke-width="1" stroke-opacity="0"></use></g></g><g><use xlink:href="#j9OruEhyD" opacity="1" fill="#ec202c" fill-opacity="1"></use><g><use xlink:href="#j9OruEhyD" opacity="1" fill-opacity="0" stroke="#000000" stroke-width="1" stroke-opacity="0"></use></g></g><g><use xlink:href="#b3PzJgGT4n" opacity="1" fill="#5f3521" fill-opacity="1"></use><g><use xlink:href="#b3PzJgGT4n" opacity="1" fill-opacity="0" stroke="#000000" stroke-width="1" stroke-opacity="0"></use></g></g><g><use xlink:href="#asCKqQ8dc" opacity="1" fill="#5f3521" fill-opacity="1"></use><g><use xlink:href="#asCKqQ8dc" opacity="1" fill-opacity="0" stroke="#000000" stroke-width="1" stroke-opacity="0"></use></g></g><g><use xlink:href="#bgpD3bp2I" opacity="1" fill="#b82025" fill-opacity="1"></use><g><use xlink:href="#bgpD3bp2I" opacity="1" fill-opacity="0" stroke="#000000" stroke-width="1" stroke-opacity="0"></use></g></g><g><use xlink:href="#b2tCklOg7e" opacity="1" fill="#9eb68e" fill-opacity="1"></use><g><use xlink:href="#b2tCklOg7e" opacity="1" fill-opacity="0" stroke="#000000" stroke-width="1" stroke-opacity="0"></use></g></g><g><use xlink:href="#aSbiSaq78" opacity="1" fill="#62352b" fill-opacity="1"></use><g><use xlink:href="#aSbiSaq78" opacity="1" fill-opacity="0" stroke="#000000" stroke-width="1" stroke-opacity="0"></use></g></g><g><use xlink:href="#d59MipTK68" opacity="1" fill="#9eb68e" fill-opacity="1"></use><g><use xlink:href="#d59MipTK68" opacity="1" fill-opacity="0" stroke="#000000" stroke-width="1" stroke-opacity="0"></use></g></g><g><use xlink:href="#dLDB9qN6S" opacity="1" fill="#62352b" fill-opacity="1"></use><g><use xlink:href="#dLDB9qN6S" opacity="1" fill-opacity="0" stroke="#000000" stroke-width="1" stroke-opacity="0"></use></g></g><g><use xlink:href="#cP4Hiamwk" opacity="1" fill="#b0d3b4" fill-opacity="1"></use><g><use xlink:href="#cP4Hiamwk" opacity="1" fill-opacity="0" stroke="#000000" stroke-width="1" stroke-opacity="0"></use></g></g><g><use xlink:href="#coYCH3P5v" opacity="1" fill="#f3d1ad" fill-opacity="1"></use><g><use xlink:href="#coYCH3P5v" opacity="1" fill-opacity="0" stroke="#000000" stroke-width="1" stroke-opacity="0"></use></g></g><g><use xlink:href="#d4x3yAimQZ" opacity="1" fill="#fce4bf" fill-opacity="1"></use><g><use xlink:href="#d4x3yAimQZ" opacity="1" fill-opacity="0" stroke="#000000" stroke-width="1" stroke-opacity="0"></use></g></g><g><use xlink:href="#c1BNCoQDKY" opacity="1" fill="#e08f26" fill-opacity="1"></use><g><use xlink:href="#c1BNCoQDKY" opacity="1" fill-opacity="0" stroke="#000000" stroke-width="1" stroke-opacity="0"></use></g></g><g><use xlink:href="#b1Fg3G7Ucn" opacity="1" fill="#fff0d9" fill-opacity="1"></use><g><use xlink:href="#b1Fg3G7Ucn" opacity="1" fill-opacity="0" stroke="#000000" stroke-width="1" stroke-opacity="0"></use></g></g><g><use xlink:href="#c3KdIKg3ju" opacity="1" fill="#5f3521" fill-opacity="1"></use><g><use xlink:href="#c3KdIKg3ju" opacity="1" fill-opacity="0" stroke="#000000" stroke-width="1" stroke-opacity="0"></use></g></g><g><use xlink:href="#blfQb6TCo" opacity="1" fill="#754d29" fill-opacity="1"></use><g><use xlink:href="#blfQb6TCo" opacity="1" fill-opacity="0" stroke="#000000" stroke-width="1" stroke-opacity="0"></use></g></g><g><use xlink:href="#c25JA7eNhI" opacity="1" fill="#8b5e3c" fill-opacity="1"></use><g><use xlink:href="#c25JA7eNhI" opacity="1" fill-opacity="0" stroke="#000000" stroke-width="1" stroke-opacity="0"></use></g></g><g><use xlink:href="#b5Bpiu62W3" opacity="1" fill="#8b5e3c" fill-opacity="1"></use><g><use xlink:href="#b5Bpiu62W3" opacity="1" fill-opacity="0" stroke="#000000" stroke-width="1" stroke-opacity="0"></use></g></g><g><use xlink:href="#a4GqcB1Dr2" opacity="1" fill="#a97c50" fill-opacity="1"></use><g><use xlink:href="#a4GqcB1Dr2" opacity="1" fill-opacity="0" stroke="#000000" stroke-width="1" stroke-opacity="0"></use></g></g><g><use xlink:href="#haNVQ13wr" opacity="1" fill="#a97c50" fill-opacity="1"></use><g><use xlink:href="#haNVQ13wr" opacity="1" fill-opacity="0" stroke="#000000" stroke-width="1" stroke-opacity="0"></use></g></g><g><use xlink:href="#ig9YGIOOZ" opacity="1" fill="#8b5e3c" fill-opacity="1"></use><g><use xlink:href="#ig9YGIOOZ" opacity="1" fill-opacity="0" stroke="#000000" stroke-width="1" stroke-opacity="0"></use></g></g><g><use xlink:href="#aHxX55Yn0" opacity="1" fill="#8b5e3c" fill-opacity="1"></use><g><use xlink:href="#aHxX55Yn0" opacity="1" fill-opacity="0" stroke="#000000" stroke-width="1" stroke-opacity="0"></use></g></g><g><use xlink:href="#a8xXOyVQU" opacity="1" fill="#754d29" fill-opacity="1"></use><g><use xlink:href="#a8xXOyVQU" opacity="1" fill-opacity="0" stroke="#000000" stroke-width="1" stroke-opacity="0"></use></g></g><g><use xlink:href="#ge6EyGGEA" opacity="1" fill="#5f3521" fill-opacity="1"></use><g><use xlink:href="#ge6EyGGEA" opacity="1" fill-opacity="0" stroke="#000000" stroke-width="1" stroke-opacity="0"></use></g></g><g><use xlink:href="#a4uQxQicGF" opacity="1" fill="#e08f26" fill-opacity="1"></use><g><use xlink:href="#a4uQxQicGF" opacity="1" fill-opacity="0" stroke="#000000" stroke-width="1" stroke-opacity="0"></use></g></g><g><use xlink:href="#b1lNaqQbEG" opacity="1" fill="#fff0d9" fill-opacity="1"></use><g><use xlink:href="#b1lNaqQbEG" opacity="1" fill-opacity="0" stroke="#000000" stroke-width="1" stroke-opacity="0"></use></g></g><g><use xlink:href="#aldRx05kS" opacity="1" fill="#5f3521" fill-opacity="1"></use><g><use xlink:href="#aldRx05kS" opacity="1" fill-opacity="0" stroke="#000000" stroke-width="1" stroke-opacity="0"></use></g></g><g><use xlink:href="#e2ZZfvD19t" opacity="1" fill="#754d29" fill-opacity="1"></use><g><use xlink:href="#e2ZZfvD19t" opacity="1" fill-opacity="0" stroke="#000000" stroke-width="1" stroke-opacity="0"></use></g></g><g><use xlink:href="#a2J2M2R71Q" opacity="1" fill="#8b5e3c" fill-opacity="1"></use><g><use xlink:href="#a2J2M2R71Q" opacity="1" fill-opacity="0" stroke="#000000" stroke-width="1" stroke-opacity="0"></use></g></g><g><use xlink:href="#e1k9iWDF1L" opacity="1" fill="#8b5e3c" fill-opacity="1"></use><g><use xlink:href="#e1k9iWDF1L" opacity="1" fill-opacity="0" stroke="#000000" stroke-width="1" stroke-opacity="0"></use></g></g><g><use xlink:href="#anluHhMf3" opacity="1" fill="#8b5e3c" fill-opacity="1"></use><g><use xlink:href="#anluHhMf3" opacity="1" fill-opacity="0" stroke="#000000" stroke-width="1" stroke-opacity="0"></use></g></g><g><use xlink:href="#al8nTcxFr" opacity="1" fill="#8b5e3c" fill-opacity="1"></use><g><use xlink:href="#al8nTcxFr" opacity="1" fill-opacity="0" stroke="#000000" stroke-width="1" stroke-opacity="0"></use></g></g><g><use xlink:href="#cb01SdX06" opacity="1" fill="#754d29" fill-opacity="1"></use><g><use xlink:href="#cb01SdX06" opacity="1" fill-opacity="0" stroke="#000000" stroke-width="1" stroke-opacity="0"></use></g></g><g><use xlink:href="#a1OXK94aen" opacity="1" fill="#5f3521" fill-opacity="1"></use><g><use xlink:href="#a1OXK94aen" opacity="1" fill-opacity="0" stroke="#000000" stroke-width="1" stroke-opacity="0"></use></g></g><g><use xlink:href="#asJDJrzJ" opacity="1" fill="#ec202c" fill-opacity="1"></use><g><use xlink:href="#asJDJrzJ" opacity="1" fill-opacity="0" stroke="#000000" stroke-width="1" stroke-opacity="0"></use></g></g><g><use xlink:href="#a15h71V3Zn" opacity="1" fill="#f26d57" fill-opacity="1"></use><g><use xlink:href="#a15h71V3Zn" opacity="1" fill-opacity="0" stroke="#000000" stroke-width="1" stroke-opacity="0"></use></g></g><g><use xlink:href="#d2Y7GaG038" opacity="1" fill="#653c36" fill-opacity="1"></use><g><use xlink:href="#d2Y7GaG038" opacity="1" fill-opacity="0" stroke="#000000" stroke-width="1" stroke-opacity="0"></use></g></g><g><use xlink:href="#e3rzwvul7j" opacity="1" fill="#c9bfa0" fill-opacity="1"></use><g><use xlink:href="#e3rzwvul7j" opacity="1" fill-opacity="0" stroke="#000000" stroke-width="1" stroke-opacity="0"></use></g></g><g><use xlink:href="#bJH6YKxh2" opacity="1" fill="#fff0d9" fill-opacity="1"></use><g><use xlink:href="#bJH6YKxh2" opacity="1" fill-opacity="0" stroke="#000000" stroke-width="1" stroke-opacity="0"></use></g></g><g><use xlink:href="#bTohe7Xc" opacity="1" fill="#62352b" fill-opacity="1"></use><g><use xlink:href="#bTohe7Xc" opacity="1" fill-opacity="0" stroke="#000000" stroke-width="1" stroke-opacity="0"></use></g></g><g><use xlink:href="#a16WGpxpjl" opacity="1" fill="#eebf86" fill-opacity="1"></use><g><use xlink:href="#a16WGpxpjl" opacity="1" fill-opacity="0" stroke="#000000" stroke-width="1" stroke-opacity="0"></use></g></g><g><use xlink:href="#d3AbrhIuFn" opacity="1" fill="#e08f26" fill-opacity="1"></use><g><use xlink:href="#d3AbrhIuFn" opacity="1" fill-opacity="0" stroke="#000000" stroke-width="1" stroke-opacity="0"></use></g></g><g><use xlink:href="#fwLqrhUbx" opacity="1" fill="#5f3521" fill-opacity="1"></use><g><use xlink:href="#fwLqrhUbx" opacity="1" fill-opacity="0" stroke="#000000" stroke-width="1" stroke-opacity="0"></use></g></g><g><use xlink:href="#f1I98tMouY" opacity="1" fill="#99bbff" fill-opacity="1"></use><g><use xlink:href="#f1I98tMouY" opacity="1" fill-opacity="0" stroke="#000000" stroke-width="1" stroke-opacity="0"></use></g></g><g><use xlink:href="#ago4Itz0H" opacity="1" fill="#8095ff" fill-opacity="1"></use><g><use xlink:href="#ago4Itz0H" opacity="1" fill-opacity="0" stroke="#000000" stroke-width="1" stroke-opacity="0"></use></g></g><g><use xlink:href="#b4x96fslev" opacity="1" fill="#99bbff" fill-opacity="1"></use><g><use xlink:href="#b4x96fslev" opacity="1" fill-opacity="0" stroke="#000000" stroke-width="1" stroke-opacity="0"></use></g></g><g><use xlink:href="#dfuMoo2Gb" opacity="1" fill="#8095ff" fill-opacity="1"></use><g><use xlink:href="#dfuMoo2Gb" opacity="1" fill-opacity="0" stroke="#000000" stroke-width="1" stroke-opacity="0"></use></g></g><g><use xlink:href="#b4gFnzgLXl" opacity="1" fill="#ffd480" fill-opacity="1"></use><g><use xlink:href="#b4gFnzgLXl" opacity="1" fill-opacity="0" stroke="#000000" stroke-width="1" stroke-opacity="0"></use></g></g><g><use xlink:href="#b1roShdpUq" opacity="1" fill="#ffbb33" fill-opacity="1"></use><g><use xlink:href="#b1roShdpUq" opacity="1" fill-opacity="0" stroke="#000000" stroke-width="1" stroke-opacity="0"></use></g></g><g><use xlink:href="#bj2UuEQUL" opacity="1" fill="#ffd480" fill-opacity="1"></use><g><use xlink:href="#bj2UuEQUL" opacity="1" fill-opacity="0" stroke="#000000" stroke-width="1" stroke-opacity="0"></use></g></g><g><use xlink:href="#a1x6SXjlZu" opacity="1" fill="#ffbb33" fill-opacity="1"></use><g><use xlink:href="#a1x6SXjlZu" opacity="1" fill-opacity="0" stroke="#000000" stroke-width="1" stroke-opacity="0"></use></g></g><g><use xlink:href="#d7xm3h8yL" opacity="1" fill="#99bbff" fill-opacity="1"></use><g><use xlink:href="#d7xm3h8yL" opacity="1" fill-opacity="0" stroke="#000000" stroke-width="1" stroke-opacity="0"></use></g></g><g><use xlink:href="#a25OQFTjCv" opacity="1" fill="#8095ff" fill-opacity="1"></use><g><use xlink:href="#a25OQFTjCv" opacity="1" fill-opacity="0" stroke="#000000" stroke-width="1" stroke-opacity="0"></use></g></g><g><use xlink:href="#a4zx9arl3V" opacity="1" fill="#99bbff" fill-opacity="1"></use><g><use xlink:href="#a4zx9arl3V" opacity="1" fill-opacity="0" stroke="#000000" stroke-width="1" stroke-opacity="0"></use></g></g><g><use xlink:href="#g1Dy1r3mal" opacity="1" fill="#8095ff" fill-opacity="1"></use><g><use xlink:href="#g1Dy1r3mal" opacity="1" fill-opacity="0" stroke="#000000" stroke-width="1" stroke-opacity="0"></use></g></g><g><use xlink:href="#a5spXCvLct" opacity="1" fill="#ffd480" fill-opacity="1"></use><g><use xlink:href="#a5spXCvLct" opacity="1" fill-opacity="0" stroke="#000000" stroke-width="1" stroke-opacity="0"></use></g></g><g><use xlink:href="#anUdBQqn7" opacity="1" fill="#ffbb33" fill-opacity="1"></use><g><use xlink:href="#anUdBQqn7" opacity="1" fill-opacity="0" stroke="#000000" stroke-width="1" stroke-opacity="0"></use></g></g><g><use xlink:href="#cHmny2BIg" opacity="1" fill="#ffd480" fill-opacity="1"></use><g><use xlink:href="#cHmny2BIg" opacity="1" fill-opacity="0" stroke="#000000" stroke-width="1" stroke-opacity="0"></use></g></g><g><use xlink:href="#bP6lLO1Ap" opacity="1" fill="#ffbb33" fill-opacity="1"></use><g><use xlink:href="#bP6lLO1Ap" opacity="1" fill-opacity="0" stroke="#000000" stroke-width="1" stroke-opacity="0"></use></g></g></g></g></svg>